<?xml version="1.0" encoding="UTF-8" standalone="no"?>
<!DOCTYPE svg PUBLIC "-//W3C//DTD SVG 1.1//EN"
 "http://www.w3.org/Graphics/SVG/1.1/DTD/svg11.dtd">
<!-- Generated by graphviz version 14.0.0 (20250921.2048)
 -->
<!-- Title: Competitive Events Pages: 1 -->
<svg width="839pt" height="455pt"
 viewBox="0.00 0.00 839.00 455.00" xmlns="http://www.w3.org/2000/svg" xmlns:xlink="http://www.w3.org/1999/xlink">
<g id="graph0" class="graph" transform="scale(1 1) rotate(0) translate(4 451.25)">
<title>Competitive Events</title>
<text xml:space="preserve" text-anchor="middle" x="415.44" y="-428.05" font-family="Arial Bold" font-size="16.00">Competitive Events</text>
<text xml:space="preserve" text-anchor="middle" x="415.44" y="-409.3" font-family="Arial Bold" font-size="16.00">Where your AIs compete &#45; Battles &amp; Reality Show Challenges</text>
<!-- battles -->
<g id="node1" class="node">
<title>battles</title>
<polygon fill="white" stroke="none" points="8,-289 8,-397.75 141.25,-397.75 141.25,-289 8,-289"/>
<polygon fill="#3498db" stroke="none" points="10,-375.25 10,-395.75 139.25,-395.75 139.25,-375.25 10,-375.25"/>
<text xml:space="preserve" text-anchor="start" x="55.5" y="-381.45" font-family="Times,serif" font-weight="bold" font-size="14.00" fill="white">battles</text>
<text xml:space="preserve" text-anchor="start" x="12" y="-359.95" font-family="Times,serif" font-size="14.00">id 🔑 : text</text>
<text xml:space="preserve" text-anchor="start" x="12" y="-337.2" font-family="Times,serif" font-size="14.00">status : text</text>
<text xml:space="preserve" text-anchor="start" x="12" y="-316.7" font-family="Times,serif" font-size="14.00">current_round : integer</text>
<polygon fill="#f0f0f0" stroke="none" points="10,-291 10,-311.5 139.25,-311.5 139.25,-291 10,-291"/>
<text xml:space="preserve" text-anchor="start" x="21" y="-297.2" font-family="Times,serif" font-style="italic" font-size="14.00">+ 16 more columns</text>
<polygon fill="none" stroke="black" stroke-width="2" points="9,-290 9,-396.75 140.25,-396.75 140.25,-290 9,-290"/>
</g>
<!-- challenge_leaderboard -->
<g id="node2" class="node">
<title>challenge_leaderboard</title>
<polygon fill="white" stroke="none" points="175,-309.5 175,-377.25 314.25,-377.25 314.25,-309.5 175,-309.5"/>
<polygon fill="#3498db" stroke="none" points="177,-354.75 177,-375.25 312.25,-375.25 312.25,-354.75 177,-354.75"/>
<text xml:space="preserve" text-anchor="start" x="179" y="-360.95" font-family="Times,serif" font-weight="bold" font-size="14.00" fill="white">challenge_leaderboard</text>
<text xml:space="preserve" text-anchor="start" x="179" y="-339.45" font-family="Times,serif" font-size="14.00">id 🔑 : uuid</text>
<polygon fill="#f0f0f0" stroke="none" points="177,-311.5 177,-332 312.25,-332 312.25,-311.5 177,-311.5"/>
<text xml:space="preserve" text-anchor="start" x="191" y="-317.7" font-family="Times,serif" font-style="italic" font-size="14.00">+ 13 more columns</text>
<polygon fill="none" stroke="black" stroke-width="2" points="176,-310.5 176,-376.25 313.25,-376.25 313.25,-310.5 176,-310.5"/>
</g>
<!-- challenge_templates -->
<g id="node3" class="node">
<title>challenge_templates</title>
<polygon fill="white" stroke="none" points="442.75,-4 442.75,-92.25 586.5,-92.25 586.5,-4 442.75,-4"/>
<polygon fill="#3498db" stroke="none" points="444.75,-69.75 444.75,-90.25 584.5,-90.25 584.5,-69.75 444.75,-69.75"/>
<text xml:space="preserve" text-anchor="start" x="456.12" y="-75.95" font-family="Times,serif" font-weight="bold" font-size="14.00" fill="white">challenge_templates</text>
<text xml:space="preserve" text-anchor="start" x="446.75" y="-54.45" font-family="Times,serif" font-size="14.00">id 🔑 : uuid</text>
<text xml:space="preserve" text-anchor="start" x="446.75" y="-31.7" font-family="Times,serif" font-size="14.00">name : character varying</text>
<polygon fill="#f0f0f0" stroke="none" points="444.75,-6 444.75,-26.5 584.5,-26.5 584.5,-6 444.75,-6"/>
<text xml:space="preserve" text-anchor="start" x="461" y="-12.2" font-family="Times,serif" font-style="italic" font-size="14.00">+ 15 more columns</text>
<polygon fill="none" stroke="black" stroke-width="2" points="443.75,-5 443.75,-91.25 585.5,-91.25 585.5,-5 443.75,-5"/>
</g>
<!-- active_challenges -->
<g id="node4" class="node">
<title>active_challenges</title>
<polygon fill="white" stroke="none" points="504.38,-136.25 504.38,-245 648.88,-245 648.88,-136.25 504.38,-136.25"/>
<polygon fill="#3498db" stroke="none" points="506.38,-222.5 506.38,-243 646.88,-243 646.88,-222.5 506.38,-222.5"/>
<text xml:space="preserve" text-anchor="start" x="526.75" y="-228.7" font-family="Times,serif" font-weight="bold" font-size="14.00" fill="white">active_challenges</text>
<text xml:space="preserve" text-anchor="start" x="508.38" y="-207.2" font-family="Times,serif" font-size="14.00">id 🔑 : uuid</text>
<text xml:space="preserve" text-anchor="start" x="508.38" y="-184.45" font-family="Times,serif" font-size="14.00">user_id : text</text>
<text xml:space="preserve" text-anchor="start" x="508.38" y="-163.95" font-family="Times,serif" font-size="14.00">status : character varying</text>
<polygon fill="#f0f0f0" stroke="none" points="506.38,-138.25 506.38,-158.75 646.88,-158.75 646.88,-138.25 506.38,-138.25"/>
<text xml:space="preserve" text-anchor="start" x="526.38" y="-144.45" font-family="Times,serif" font-style="italic" font-size="14.00">+ 7 more columns</text>
<polygon fill="none" stroke="black" stroke-width="2" points="505.38,-137.25 505.38,-244 647.88,-244 647.88,-137.25 505.38,-137.25"/>
</g>
<!-- active_challenges&#45;&gt;challenge_templates -->
<g id="edge1" class="edge">
<title>active_challenges:challenge_template_id&#45;&gt;challenge_templates:id</title>
<path fill="none" stroke="#666666" stroke-width="1.5" d="M600.38,-132.44C610.19,-102.32 615.52,-69.79 597.29,-60.8"/>
<polygon fill="#666666" stroke="#666666" stroke-width="1.5" points="598.22,-57.41 587.72,-58.83 596.82,-64.27 598.22,-57.41"/>
</g>
<!-- challenge_results -->
<g id="node5" class="node">
<title>challenge_results</title>
<polygon fill="white" stroke="none" points="348.38,-299.25 348.38,-387.5 498.88,-387.5 498.88,-299.25 348.38,-299.25"/>
<polygon fill="#3498db" stroke="none" points="350.38,-365 350.38,-385.5 496.88,-385.5 496.88,-365 350.38,-365"/>
<text xml:space="preserve" text-anchor="start" x="374.12" y="-371.2" font-family="Times,serif" font-weight="bold" font-size="14.00" fill="white">challenge_results</text>
<text xml:space="preserve" text-anchor="start" x="352.38" y="-349.7" font-family="Times,serif" font-size="14.00">id 🔑 : uuid</text>
<text xml:space="preserve" text-anchor="start" x="352.38" y="-326.95" font-family="Times,serif" font-size="14.00">winner_character_id : text</text>
<polygon fill="#f0f0f0" stroke="none" points="350.38,-301.25 350.38,-321.75 496.88,-321.75 496.88,-301.25 350.38,-301.25"/>
<text xml:space="preserve" text-anchor="start" x="370" y="-307.45" font-family="Times,serif" font-style="italic" font-size="14.00">+ 10 more columns</text>
<polygon fill="none" stroke="black" stroke-width="2" points="349.38,-300.25 349.38,-386.5 497.88,-386.5 497.88,-300.25 349.38,-300.25"/>
</g>
<!-- challenge_results&#45;&gt;challenge_templates -->
<g id="edge3" class="edge">
<title>challenge_results:challenge_template_id&#45;&gt;challenge_templates:id</title>
<path fill="none" stroke="#666666" stroke-width="1.5" d="M408.22,-295.48C385.32,-218.44 352.9,-72.28 431.86,-59.3"/>
<polygon fill="#666666" stroke="#666666" stroke-width="1.5" points="431.79,-62.82 441.49,-58.55 431.24,-55.84 431.79,-62.82"/>
</g>
<!-- challenge_results&#45;&gt;active_challenges -->
<g id="edge2" class="edge">
<title>challenge_results:active_challenge_id&#45;&gt;active_challenges:id</title>
<path fill="none" stroke="#666666" stroke-width="1.5" d="M447.89,-295.36C463.35,-266.53 482.84,-232.47 495.71,-218.09"/>
<polygon fill="#666666" stroke="#666666" stroke-width="1.5" points="497.46,-221.14 503.53,-212.45 493.37,-215.46 497.46,-221.14"/>
</g>
<!-- challenge_alliances -->
<g id="node6" class="node">
<title>challenge_alliances</title>
<polygon fill="white" stroke="none" points="532.5,-309.5 532.5,-377.25 650.75,-377.25 650.75,-309.5 532.5,-309.5"/>
<polygon fill="#3498db" stroke="none" points="534.5,-354.75 534.5,-375.25 648.75,-375.25 648.75,-354.75 534.5,-354.75"/>
<text xml:space="preserve" text-anchor="start" x="536.5" y="-360.95" font-family="Times,serif" font-weight="bold" font-size="14.00" fill="white">challenge_alliances</text>
<text xml:space="preserve" text-anchor="start" x="536.5" y="-339.45" font-family="Times,serif" font-size="14.00">id 🔑 : uuid</text>
<polygon fill="#f0f0f0" stroke="none" points="534.5,-311.5 534.5,-332 648.75,-332 648.75,-311.5 534.5,-311.5"/>
<text xml:space="preserve" text-anchor="start" x="541.38" y="-317.7" font-family="Times,serif" font-style="italic" font-size="14.00">+ 9 more columns</text>
<polygon fill="none" stroke="black" stroke-width="2" points="533.5,-310.5 533.5,-376.25 649.75,-376.25 649.75,-310.5 533.5,-310.5"/>
</g>
<!-- challenge_alliances&#45;&gt;active_challenges -->
<g id="edge4" class="edge">
<title>challenge_alliances:active_challenge_id&#45;&gt;active_challenges:id</title>
<path fill="none" stroke="#666666" stroke-width="1.5" d="M622.31,-305.81C649.04,-271.68 680.51,-224.4 659.64,-213.45"/>
<polygon fill="#666666" stroke="#666666" stroke-width="1.5" points="660.59,-210.07 650.1,-211.57 659.23,-216.94 660.59,-210.07"/>
</g>
<!-- challenge_participants -->
<g id="node7" class="node">
<title>challenge_participants</title>
<polygon fill="white" stroke="none" points="684.38,-299.25 684.38,-387.5 822.88,-387.5 822.88,-299.25 684.38,-299.25"/>
<polygon fill="#3498db" stroke="none" points="686.38,-365 686.38,-385.5 820.88,-385.5 820.88,-365 686.38,-365"/>
<text xml:space="preserve" text-anchor="start" x="688.38" y="-371.2" font-family="Times,serif" font-weight="bold" font-size="14.00" fill="white">challenge_participants</text>
<text xml:space="preserve" text-anchor="start" x="688.38" y="-349.7" font-family="Times,serif" font-size="14.00">id 🔑 : uuid</text>
<text xml:space="preserve" text-anchor="start" x="688.38" y="-326.95" font-family="Times,serif" font-size="14.00">placement : integer</text>
<polygon fill="#f0f0f0" stroke="none" points="686.38,-301.25 686.38,-321.75 820.88,-321.75 820.88,-301.25 686.38,-301.25"/>
<text xml:space="preserve" text-anchor="start" x="700" y="-307.45" font-family="Times,serif" font-style="italic" font-size="14.00">+ 10 more columns</text>
<polygon fill="none" stroke="black" stroke-width="2" points="685.38,-300.25 685.38,-386.5 821.88,-386.5 821.88,-300.25 685.38,-300.25"/>
</g>
<!-- challenge_participants&#45;&gt;active_challenges -->
<g id="edge5" class="edge">
<title>challenge_participants:active_challenge_id&#45;&gt;active_challenges:id</title>
<path fill="none" stroke="#666666" stroke-width="1.5" d="M737.63,-295.36C723,-261.23 697.82,-219.78 660.02,-212.31"/>
<polygon fill="#666666" stroke="#666666" stroke-width="1.5" points="660.43,-208.83 650.13,-211.35 659.75,-215.8 660.43,-208.83"/>
</g>
</g>
</svg>
