<?xml version="1.0" encoding="UTF-8" standalone="no"?>
<!DOCTYPE svg PUBLIC "-//W3C//DTD SVG 1.1//EN"
 "http://www.w3.org/Graphics/SVG/1.1/DTD/svg11.dtd">
<!-- Generated by graphviz version 14.0.0 (20250921.2048)
 -->
<!-- Title: blankwars_schema Pages: 1 -->
<svg width="5082pt" height="404pt"
 viewBox="0.00 0.00 5082.00 404.00" xmlns="http://www.w3.org/2000/svg" xmlns:xlink="http://www.w3.org/1999/xlink">
<g id="graph0" class="graph" transform="scale(1 1) rotate(0) translate(4 400)">
<title>blankwars_schema</title>
<polygon fill="white" stroke="none" points="-4,4 -4,-400 5077.62,-400 5077.62,4 -4,4"/>
<!-- active_challenges -->
<g id="node1" class="node">
<title>active_challenges</title>
<polygon fill="#87ceeb" stroke="black" stroke-width="2" points="281,-36 187,-36 187,0 281,0 281,-36"/>
<text xml:space="preserve" text-anchor="middle" x="234" y="-14.5" font-family="Arial" font-size="10.00">active_challenges</text>
</g>
<!-- challenge_templates -->
<g id="node9" class="node">
<title>challenge_templates</title>
<polygon fill="#ffd700" stroke="black" stroke-width="2" points="260.62,-396 155.38,-396 155.38,-360 260.62,-360 260.62,-396"/>
<text xml:space="preserve" text-anchor="middle" x="208" y="-374.5" font-family="Arial" font-size="10.00">challenge_templates</text>
</g>
<!-- active_challenges&#45;&gt;challenge_templates -->
<g id="edge2" class="edge">
<title>active_challenges&#45;&gt;challenge_templates</title>
<path fill="none" stroke="#333333" stroke-width="1.5" d="M265.72,-36.82C265.72,-109.52 265.72,-368 265.72,-368 265.72,-368 265.3,-368 265.3,-368"/>
<polygon fill="#333333" stroke="#333333" stroke-width="1.5" points="270.84,-365.55 263.84,-368 270.84,-370.45 270.84,-365.55"/>
<text xml:space="preserve" text-anchor="middle" x="61.5" y="-192.95" font-family="Times,serif" font-size="14.00">challenge_template_id</text>
</g>
<!-- users -->
<g id="node47" class="node">
<title>users</title>
<polygon fill="#ffd700" stroke="black" stroke-width="2" points="2310,-396 2256,-396 2256,-360 2310,-360 2310,-396"/>
<text xml:space="preserve" text-anchor="middle" x="2283" y="-374.5" font-family="Arial" font-size="10.00">users</text>
</g>
<!-- active_challenges&#45;&gt;users -->
<g id="edge1" class="edge">
<title>active_challenges&#45;&gt;users</title>
<path fill="none" stroke="#333333" stroke-width="1.5" d="M270.81,-36.8C270.81,-112.64 270.81,-392 270.81,-392 270.81,-392 2246.05,-392 2246.05,-392"/>
<polygon fill="#333333" stroke="#333333" stroke-width="1.5" points="2246.05,-394.45 2253.05,-392 2246.05,-389.55 2246.05,-394.45"/>
<text xml:space="preserve" text-anchor="middle" x="348.88" y="-192.95" font-family="Times,serif" font-size="14.00">user_id</text>
</g>
<!-- battles -->
<g id="node2" class="node">
<title>battles</title>
<polygon fill="#87ceeb" stroke="black" stroke-width="2" points="1225,-36 1171,-36 1171,0 1225,0 1225,-36"/>
<text xml:space="preserve" text-anchor="middle" x="1198" y="-14.5" font-family="Arial" font-size="10.00">battles</text>
</g>
<!-- user_characters -->
<g id="node41" class="node">
<title>user_characters</title>
<polygon fill="#87ceeb" stroke="black" stroke-width="2" points="1871.88,-36 1786.12,-36 1786.12,0 1871.88,0 1871.88,-36"/>
<text xml:space="preserve" text-anchor="middle" x="1829" y="-14.5" font-family="Arial" font-size="10.00">user_characters</text>
</g>
<!-- battles&#45;&gt;user_characters -->
<g id="edge5" class="edge">
<title>battles&#45;&gt;user_characters</title>
<path fill="none" stroke="#666666" d="M1225.93,-6C1225.93,-6 1776.61,-6 1776.61,-6"/>
<polygon fill="#666666" stroke="#666666" points="1776.61,-8.45 1783.61,-6 1776.61,-3.55 1776.61,-8.45"/>
</g>
<!-- battles&#45;&gt;user_characters -->
<g id="edge6" class="edge">
<title>battles&#45;&gt;user_characters</title>
</g>
<!-- battles&#45;&gt;users -->
<g id="edge3" class="edge">
<title>battles&#45;&gt;users</title>
<path fill="none" stroke="#333333" stroke-width="1.5" d="M1189,-36.86C1189,-112.26 1189,-388 1189,-388 1189,-388 2245.86,-388 2245.86,-388"/>
<polygon fill="#333333" stroke="#333333" stroke-width="1.5" points="2245.86,-390.45 2252.86,-388 2245.86,-385.55 2245.86,-390.45"/>
<text xml:space="preserve" text-anchor="middle" x="612.25" y="-192.95" font-family="Times,serif" font-size="14.00">user1_id</text>
</g>
<!-- card_packs -->
<g id="node3" class="node">
<title>card_packs</title>
<polygon fill="#ffffff" stroke="black" points="4022.12,-36 3955.88,-36 3955.88,0 4022.12,0 4022.12,-36"/>
<text xml:space="preserve" text-anchor="middle" x="3989" y="-14.5" font-family="Arial" font-size="10.00">card_packs</text>
</g>
<!-- challenge_alliances -->
<g id="node4" class="node">
<title>challenge_alliances</title>
<polygon fill="#ffffff" stroke="black" points="891.38,-216 790.62,-216 790.62,-180 891.38,-180 891.38,-216"/>
<text xml:space="preserve" text-anchor="middle" x="841" y="-194.5" font-family="Arial" font-size="10.00">challenge_alliances</text>
</g>
<!-- challenge_alliances&#45;&gt;active_challenges -->
<g id="edge9" class="edge">
<title>challenge_alliances&#45;&gt;active_challenges</title>
<path fill="none" stroke="#666666" d="M857.79,-179.71C857.79,-135.03 857.79,-24 857.79,-24 857.79,-24 290.43,-24 290.43,-24"/>
<polygon fill="#666666" stroke="#666666" points="290.43,-21.55 283.43,-24 290.43,-26.45 290.43,-21.55"/>
<text xml:space="preserve" text-anchor="middle" x="362" y="-102.95" font-family="Times,serif" font-size="14.00">active_challenge_id</text>
</g>
<!-- challenge_alliances&#45;&gt;user_characters -->
<g id="edge8" class="edge">
<title>challenge_alliances&#45;&gt;user_characters</title>
<path fill="none" stroke="#666666" d="M824.21,-179.87C824.21,-169.29 824.21,-158 824.21,-158 824.21,-158 1819.03,-158 1819.03,-158 1819.03,-158 1819.03,-45.39 1819.03,-45.39"/>
<polygon fill="#666666" stroke="#666666" points="1821.48,-45.39 1819.03,-38.39 1816.58,-45.39 1821.48,-45.39"/>
<text xml:space="preserve" text-anchor="middle" x="970.25" y="-102.95" font-family="Times,serif" font-size="14.00">leader_character_id</text>
</g>
<!-- challenge_leaderboard -->
<g id="node5" class="node">
<title>challenge_leaderboard</title>
<polygon fill="#ffffff" stroke="black" points="1868.38,-216 1755.62,-216 1755.62,-180 1868.38,-180 1868.38,-216"/>
<text xml:space="preserve" text-anchor="middle" x="1812" y="-194.5" font-family="Arial" font-size="10.00">challenge_leaderboard</text>
</g>
<!-- challenge_leaderboard&#45;&gt;user_characters -->
<g id="edge10" class="edge">
<title>challenge_leaderboard&#45;&gt;user_characters</title>
<path fill="none" stroke="#666666" d="M1835.47,-179.75C1835.47,-179.75 1835.47,-45.35 1835.47,-45.35"/>
<polygon fill="#666666" stroke="#666666" points="1837.93,-45.35 1835.48,-38.35 1833.03,-45.35 1837.93,-45.35"/>
<text xml:space="preserve" text-anchor="middle" x="1931" y="-102.95" font-family="Times,serif" font-size="14.00">user_character_id</text>
</g>
<!-- challenge_participants -->
<g id="node6" class="node">
<title>challenge_participants</title>
<polygon fill="#ffffff" stroke="black" points="517.38,-216 404.62,-216 404.62,-180 517.38,-180 517.38,-216"/>
<text xml:space="preserve" text-anchor="middle" x="461" y="-194.5" font-family="Arial" font-size="10.00">challenge_participants</text>
</g>
<!-- challenge_participants&#45;&gt;active_challenges -->
<g id="edge11" class="edge">
<title>challenge_participants&#45;&gt;active_challenges</title>
<path fill="none" stroke="#666666" d="M404.21,-198C349.8,-198 275.91,-198 275.91,-198 275.91,-198 275.91,-45.44 275.91,-45.44"/>
<polygon fill="#666666" stroke="#666666" points="278.36,-45.44 275.91,-38.44 273.46,-45.44 278.36,-45.44"/>
<text xml:space="preserve" text-anchor="middle" x="213" y="-102.95" font-family="Times,serif" font-size="14.00">active_challenge_id</text>
</g>
<!-- challenge_participants&#45;&gt;user_characters -->
<g id="edge12" class="edge">
<title>challenge_participants&#45;&gt;user_characters</title>
<path fill="none" stroke="#666666" d="M461,-179.67C461,-165.4 461,-148 461,-148 461,-148 1802.57,-148 1802.57,-148 1802.57,-148 1802.57,-45.42 1802.57,-45.42"/>
<polygon fill="#666666" stroke="#666666" points="1805.03,-45.42 1802.58,-38.42 1800.13,-45.42 1805.03,-45.42"/>
<text xml:space="preserve" text-anchor="middle" x="697" y="-102.95" font-family="Times,serif" font-size="14.00">user_character_id</text>
</g>
<!-- challenge_results -->
<g id="node7" class="node">
<title>challenge_results</title>
<polygon fill="#ffffff" stroke="black" points="1145.88,-216 1054.12,-216 1054.12,-180 1145.88,-180 1145.88,-216"/>
<text xml:space="preserve" text-anchor="middle" x="1100" y="-194.5" font-family="Arial" font-size="10.00">challenge_results</text>
</g>
<!-- challenge_results&#45;&gt;active_challenges -->
<g id="edge17" class="edge">
<title>challenge_results&#45;&gt;active_challenges</title>
<path fill="none" stroke="#666666" d="M1100,-179.83C1100,-133.02 1100,-12 1100,-12 1100,-12 290.31,-12 290.31,-12"/>
<polygon fill="#666666" stroke="#666666" points="290.31,-9.55 283.31,-12 290.31,-14.45 290.31,-9.55"/>
<text xml:space="preserve" text-anchor="middle" x="511" y="-102.95" font-family="Times,serif" font-size="14.00">active_challenge_id</text>
</g>
<!-- challenge_results&#45;&gt;challenge_templates -->
<g id="edge16" class="edge">
<title>challenge_results&#45;&gt;challenge_templates</title>
<path fill="none" stroke="#333333" stroke-width="1.5" d="M1100,-216.17C1100,-262.98 1100,-384 1100,-384 1100,-384 270.73,-384 270.73,-384"/>
<polygon fill="#333333" stroke="#333333" stroke-width="1.5" points="270.73,-381.55 263.73,-384 270.73,-386.45 270.73,-381.55"/>
<text xml:space="preserve" text-anchor="middle" x="794.5" y="-282.95" font-family="Times,serif" font-size="14.00">challenge_template_id</text>
</g>
<!-- challenge_results&#45;&gt;user_characters -->
<g id="edge13" class="edge">
<title>challenge_results&#45;&gt;user_characters</title>
<path fill="none" stroke="#666666" d="M1146.2,-204C1222.2,-204 1365.25,-204 1365.25,-204 1365.25,-204 1365.25,-12 1365.25,-12 1365.25,-12 1776.86,-12 1776.86,-12"/>
<polygon fill="#666666" stroke="#666666" points="1776.86,-14.45 1783.86,-12 1776.86,-9.55 1776.86,-14.45"/>
<text xml:space="preserve" text-anchor="middle" x="1120.5" y="-102.95" font-family="Times,serif" font-size="14.00">winner_character_id</text>
</g>
<!-- challenge_rewards -->
<g id="node8" class="node">
<title>challenge_rewards</title>
<polygon fill="#ffffff" stroke="black" points="256.5,-216 159.5,-216 159.5,-180 256.5,-180 256.5,-216"/>
<text xml:space="preserve" text-anchor="middle" x="208" y="-194.5" font-family="Arial" font-size="10.00">challenge_rewards</text>
</g>
<!-- challenge_rewards&#45;&gt;challenge_templates -->
<g id="edge18" class="edge">
<title>challenge_rewards&#45;&gt;challenge_templates</title>
<path fill="none" stroke="#333333" stroke-width="1.5" d="M208,-216.25C208,-216.25 208,-349.89 208,-349.89"/>
<polygon fill="#333333" stroke="#333333" stroke-width="1.5" points="205.55,-349.89 208,-356.89 210.45,-349.89 205.55,-349.89"/>
<text xml:space="preserve" text-anchor="middle" x="269.5" y="-282.95" font-family="Times,serif" font-size="14.00">challenge_template_id</text>
</g>
<!-- character_abilities -->
<g id="node10" class="node">
<title>character_abilities</title>
<polygon fill="#ffffff" stroke="black" points="2110.38,-216 2015.62,-216 2015.62,-180 2110.38,-180 2110.38,-216"/>
<text xml:space="preserve" text-anchor="middle" x="2063" y="-194.5" font-family="Arial" font-size="10.00">character_abilities</text>
</g>
<!-- character_abilities&#45;&gt;user_characters -->
<g id="edge19" class="edge">
<title>character_abilities&#45;&gt;user_characters</title>
<path fill="none" stroke="#666666" d="M2063,-179.6C2063,-136.38 2063,-32 2063,-32 2063,-32 1881.25,-32 1881.25,-32"/>
<polygon fill="#666666" stroke="#666666" points="1881.25,-29.55 1874.25,-32 1881.25,-34.45 1881.25,-29.55"/>
<text xml:space="preserve" text-anchor="middle" x="2096.38" y="-102.95" font-family="Times,serif" font-size="14.00">character_id</text>
</g>
<!-- character_experience_log -->
<g id="node11" class="node">
<title>character_experience_log</title>
<polygon fill="#ffffff" stroke="black" points="2710.5,-216 2583.5,-216 2583.5,-180 2710.5,-180 2710.5,-216"/>
<text xml:space="preserve" text-anchor="middle" x="2647" y="-194.5" font-family="Arial" font-size="10.00">character_experience_log</text>
</g>
<!-- character_experience_log&#45;&gt;user_characters -->
<g id="edge20" class="edge">
<title>character_experience_log&#45;&gt;user_characters</title>
<path fill="none" stroke="#666666" d="M2647,-179.75C2647,-133.99 2647,-18 2647,-18 2647,-18 1881.2,-18 1881.2,-18"/>
<polygon fill="#666666" stroke="#666666" points="1881.2,-15.55 1874.2,-18 1881.2,-20.45 1881.2,-15.55"/>
<text xml:space="preserve" text-anchor="middle" x="2680.38" y="-102.95" font-family="Times,serif" font-size="14.00">character_id</text>
</g>
<!-- character_healing_sessions -->
<g id="node12" class="node">
<title>character_healing_sessions</title>
<polygon fill="#ffffff" stroke="black" points="4342.38,-216 4205.62,-216 4205.62,-180 4342.38,-180 4342.38,-216"/>
<text xml:space="preserve" text-anchor="middle" x="4274" y="-194.5" font-family="Arial" font-size="10.00">character_healing_sessions</text>
</g>
<!-- healing_facilities -->
<g id="node31" class="node">
<title>healing_facilities</title>
<polygon fill="#ffd700" stroke="black" stroke-width="2" points="4341,-396 4253,-396 4253,-360 4341,-360 4341,-396"/>
<text xml:space="preserve" text-anchor="middle" x="4297" y="-374.5" font-family="Arial" font-size="10.00">healing_facilities</text>
</g>
<!-- character_healing_sessions&#45;&gt;healing_facilities -->
<g id="edge22" class="edge">
<title>character_healing_sessions&#45;&gt;healing_facilities</title>
<path fill="none" stroke="#333333" stroke-width="1.5" d="M4297,-216.25C4297,-216.25 4297,-349.89 4297,-349.89"/>
<polygon fill="#333333" stroke="#333333" stroke-width="1.5" points="4294.55,-349.89 4297,-356.89 4299.45,-349.89 4294.55,-349.89"/>
<text xml:space="preserve" text-anchor="middle" x="4324.75" y="-282.95" font-family="Times,serif" font-size="14.00">facility_id</text>
</g>
<!-- character_healing_sessions&#45;&gt;user_characters -->
<g id="edge21" class="edge">
<title>character_healing_sessions&#45;&gt;user_characters</title>
<path fill="none" stroke="#666666" d="M4216.81,-179.8C4216.81,-173.97 4216.81,-169 4216.81,-169 4216.81,-169 1851.93,-169 1851.93,-169 1851.93,-169 1851.93,-45.33 1851.93,-45.33"/>
<polygon fill="#666666" stroke="#666666" points="1854.38,-45.33 1851.93,-38.33 1849.48,-45.33 1854.38,-45.33"/>
<text xml:space="preserve" text-anchor="middle" x="4095.38" y="-102.95" font-family="Times,serif" font-size="14.00">character_id</text>
</g>
<!-- character_living_context -->
<g id="node13" class="node">
<title>character_living_context</title>
<polygon fill="#ffffff" stroke="black" points="4057.88,-216 3936.12,-216 3936.12,-180 4057.88,-180 4057.88,-216"/>
<text xml:space="preserve" text-anchor="middle" x="3997" y="-194.5" font-family="Arial" font-size="10.00">character_living_context</text>
</g>
<!-- characters -->
<g id="node17" class="node">
<title>characters</title>
<polygon fill="#ffd700" stroke="black" stroke-width="2" points="4088.88,-396 4027.12,-396 4027.12,-360 4088.88,-360 4088.88,-396"/>
<text xml:space="preserve" text-anchor="middle" x="4058" y="-374.5" font-family="Arial" font-size="10.00">characters</text>
</g>
<!-- character_living_context&#45;&gt;characters -->
<g id="edge23" class="edge">
<title>character_living_context&#45;&gt;characters</title>
<path fill="none" stroke="#333333" stroke-width="1.5" d="M4042.5,-216.25C4042.5,-216.25 4042.5,-349.89 4042.5,-349.89"/>
<polygon fill="#333333" stroke="#333333" stroke-width="1.5" points="4040.05,-349.89 4042.5,-356.89 4044.95,-349.89 4040.05,-349.89"/>
<text xml:space="preserve" text-anchor="middle" x="4030.38" y="-282.95" font-family="Times,serif" font-size="14.00">character_id</text>
</g>
<!-- character_memories -->
<g id="node14" class="node">
<title>character_memories</title>
<polygon fill="#ffb6c1" stroke="black" points="4645.25,-216 4540.75,-216 4540.75,-180 4645.25,-180 4645.25,-216"/>
<text xml:space="preserve" text-anchor="middle" x="4593" y="-194.5" font-family="Arial" font-size="10.00">character_memories</text>
</g>
<!-- game_events -->
<g id="node29" class="node">
<title>game_events</title>
<polygon fill="#ffd700" stroke="black" stroke-width="2" points="4630.25,-396 4555.75,-396 4555.75,-360 4630.25,-360 4630.25,-396"/>
<text xml:space="preserve" text-anchor="middle" x="4593" y="-374.5" font-family="Arial" font-size="10.00">game_events</text>
</g>
<!-- character_memories&#45;&gt;game_events -->
<g id="edge24" class="edge">
<title>character_memories&#45;&gt;game_events</title>
<path fill="none" stroke="#333333" stroke-width="1.5" d="M4593,-216.25C4593,-216.25 4593,-349.89 4593,-349.89"/>
<polygon fill="#333333" stroke="#333333" stroke-width="1.5" points="4590.55,-349.89 4593,-356.89 4595.45,-349.89 4590.55,-349.89"/>
<text xml:space="preserve" text-anchor="middle" x="4616.25" y="-282.95" font-family="Times,serif" font-size="14.00">event_id</text>
</g>
<!-- character_progression -->
<g id="node15" class="node">
<title>character_progression</title>
<polygon fill="#ffffff" stroke="black" points="2859,-216 2747,-216 2747,-180 2859,-180 2859,-216"/>
<text xml:space="preserve" text-anchor="middle" x="2803" y="-194.5" font-family="Arial" font-size="10.00">character_progression</text>
</g>
<!-- character_progression&#45;&gt;user_characters -->
<g id="edge25" class="edge">
<title>character_progression&#45;&gt;user_characters</title>
<path fill="none" stroke="#666666" d="M2803,-179.68C2803,-133.14 2803,-14 2803,-14 2803,-14 1881.26,-14 1881.26,-14"/>
<polygon fill="#666666" stroke="#666666" points="1881.26,-11.55 1874.26,-14 1881.26,-16.45 1881.26,-11.55"/>
<text xml:space="preserve" text-anchor="middle" x="2836.38" y="-102.95" font-family="Times,serif" font-size="14.00">character_id</text>
</g>
<!-- character_skills -->
<g id="node16" class="node">
<title>character_skills</title>
<polygon fill="#ffffff" stroke="black" points="2979.12,-216 2894.88,-216 2894.88,-180 2979.12,-180 2979.12,-216"/>
<text xml:space="preserve" text-anchor="middle" x="2937" y="-194.5" font-family="Arial" font-size="10.00">character_skills</text>
</g>
<!-- character_skills&#45;&gt;user_characters -->
<g id="edge26" class="edge">
<title>character_skills&#45;&gt;user_characters</title>
<path fill="none" stroke="#666666" d="M2937,-179.53C2937,-131.98 2937,-9 2937,-9 2937,-9 1881.29,-9 1881.29,-9"/>
<polygon fill="#666666" stroke="#666666" points="1881.29,-6.55 1874.29,-9 1881.29,-11.45 1881.29,-6.55"/>
<text xml:space="preserve" text-anchor="middle" x="2970.38" y="-102.95" font-family="Times,serif" font-size="14.00">character_id</text>
</g>
<!-- chat_messages -->
<g id="node18" class="node">
<title>chat_messages</title>
<polygon fill="#ffffff" stroke="black" points="1590.5,-216 1505.5,-216 1505.5,-180 1590.5,-180 1590.5,-216"/>
<text xml:space="preserve" text-anchor="middle" x="1548" y="-194.5" font-family="Arial" font-size="10.00">chat_messages</text>
</g>
<!-- chat_messages&#45;&gt;battles -->
<g id="edge27" class="edge">
<title>chat_messages&#45;&gt;battles</title>
<path fill="none" stroke="#666666" d="M1505.16,-192C1413.57,-192 1207,-192 1207,-192 1207,-192 1207,-45.47 1207,-45.47"/>
<polygon fill="#666666" stroke="#666666" points="1209.45,-45.47 1207,-38.47 1204.55,-45.47 1209.45,-45.47"/>
<text xml:space="preserve" text-anchor="middle" x="852.62" y="-102.95" font-family="Times,serif" font-size="14.00">battle_id</text>
</g>
<!-- chat_messages&#45;&gt;user_characters -->
<g id="edge29" class="edge">
<title>chat_messages&#45;&gt;user_characters</title>
<path fill="none" stroke="#666666" d="M1548,-179.75C1548,-133.99 1548,-18 1548,-18 1548,-18 1776.89,-18 1776.89,-18"/>
<polygon fill="#666666" stroke="#666666" points="1776.89,-20.45 1783.89,-18 1776.89,-15.55 1776.89,-20.45"/>
<text xml:space="preserve" text-anchor="middle" x="1612.38" y="-102.95" font-family="Times,serif" font-size="14.00">character_id</text>
</g>
<!-- chat_messages&#45;&gt;users -->
<g id="edge28" class="edge">
<title>chat_messages&#45;&gt;users</title>
<path fill="none" stroke="#333333" stroke-width="1.5" d="M1548,-216.45C1548,-262.72 1548,-380 1548,-380 1548,-380 2245.81,-380 2245.81,-380"/>
<polygon fill="#333333" stroke="#333333" stroke-width="1.5" points="2245.81,-382.45 2252.81,-380 2245.81,-377.55 2245.81,-382.45"/>
<text xml:space="preserve" text-anchor="middle" x="1589.88" y="-282.95" font-family="Times,serif" font-size="14.00">user_id</text>
</g>
<!-- chat_sessions -->
<g id="node19" class="node">
<title>chat_sessions</title>
<polygon fill="#ffffff" stroke="black" points="4137.5,-36 4058.5,-36 4058.5,0 4137.5,0 4137.5,-36"/>
<text xml:space="preserve" text-anchor="middle" x="4098" y="-14.5" font-family="Arial" font-size="10.00">chat_sessions</text>
</g>
<!-- claimable_pack_contents -->
<g id="node20" class="node">
<title>claimable_pack_contents</title>
<polygon fill="#ffffff" stroke="black" points="4505.12,-216 4378.88,-216 4378.88,-180 4505.12,-180 4505.12,-216"/>
<text xml:space="preserve" text-anchor="middle" x="4442" y="-194.5" font-family="Arial" font-size="10.00">claimable_pack_contents</text>
</g>
<!-- claimable_pack_contents&#45;&gt;characters -->
<g id="edge31" class="edge">
<title>claimable_pack_contents&#45;&gt;characters</title>
<path fill="none" stroke="#333333" stroke-width="1.5" d="M4442,-216.3C4442,-228.76 4442,-243 4442,-243 4442,-243 4078.75,-243 4078.75,-243 4078.75,-243 4078.75,-349.96 4078.75,-349.96"/>
<polygon fill="#333333" stroke="#333333" stroke-width="1.5" points="4076.3,-349.96 4078.75,-356.96 4081.2,-349.96 4076.3,-349.96"/>
<text xml:space="preserve" text-anchor="middle" x="4451.38" y="-282.95" font-family="Times,serif" font-size="14.00">character_id</text>
</g>
<!-- claimable_packs -->
<g id="node21" class="node">
<title>claimable_packs</title>
<polygon fill="#ffffff" stroke="black" points="3919.38,-36 3830.62,-36 3830.62,0 3919.38,0 3919.38,-36"/>
<text xml:space="preserve" text-anchor="middle" x="3875" y="-14.5" font-family="Arial" font-size="10.00">claimable_packs</text>
</g>
<!-- claimable_pack_contents&#45;&gt;claimable_packs -->
<g id="edge30" class="edge">
<title>claimable_pack_contents&#45;&gt;claimable_packs</title>
<path fill="none" stroke="#666666" d="M4396.44,-179.7C4396.44,-161.73 4396.44,-137 4396.44,-137 4396.44,-137 3889.79,-137 3889.79,-137 3889.79,-137 3889.79,-44.85 3889.79,-44.85"/>
<polygon fill="#666666" stroke="#666666" points="3892.24,-44.85 3889.79,-37.85 3887.34,-44.85 3892.24,-44.85"/>
<text xml:space="preserve" text-anchor="middle" x="4357.38" y="-102.95" font-family="Times,serif" font-size="14.00">claimable_pack_id</text>
</g>
<!-- claimable_packs&#45;&gt;users -->
<g id="edge32" class="edge">
<title>claimable_packs&#45;&gt;users</title>
<path fill="none" stroke="#333333" stroke-width="1.5" d="M3860.21,-36.3C3860.21,-110.76 3860.21,-387 3860.21,-387 3860.21,-387 2319.98,-387 2319.98,-387"/>
<polygon fill="#333333" stroke="#333333" stroke-width="1.5" points="2319.98,-384.55 2312.98,-387 2319.98,-389.45 2319.98,-384.55"/>
<text xml:space="preserve" text-anchor="middle" x="3845.12" y="-192.95" font-family="Times,serif" font-size="14.00">claimed_by_user_id</text>
</g>
<!-- coach_progression -->
<g id="node22" class="node">
<title>coach_progression</title>
<polygon fill="#ffffff" stroke="black" points="3320.88,-216 3223.12,-216 3223.12,-180 3320.88,-180 3320.88,-216"/>
<text xml:space="preserve" text-anchor="middle" x="3272" y="-194.5" font-family="Arial" font-size="10.00">coach_progression</text>
</g>
<!-- coach_progression&#45;&gt;users -->
<g id="edge33" class="edge">
<title>coach_progression&#45;&gt;users</title>
<path fill="none" stroke="#333333" stroke-width="1.5" d="M3272,-216.17C3272,-261.14 3272,-374 3272,-374 3272,-374 2320.01,-374 2320.01,-374"/>
<polygon fill="#333333" stroke="#333333" stroke-width="1.5" points="2320.01,-371.55 2313.01,-374 2320.01,-376.45 2320.01,-371.55"/>
<text xml:space="preserve" text-anchor="middle" x="3291.88" y="-282.95" font-family="Times,serif" font-size="14.00">user_id</text>
</g>
<!-- coach_skills -->
<g id="node23" class="node">
<title>coach_skills</title>
<polygon fill="#ffffff" stroke="black" points="2216,-216 2146,-216 2146,-180 2216,-180 2216,-216"/>
<text xml:space="preserve" text-anchor="middle" x="2181" y="-194.5" font-family="Arial" font-size="10.00">coach_skills</text>
</g>
<!-- coach_skills&#45;&gt;users -->
<g id="edge34" class="edge">
<title>coach_skills&#45;&gt;users</title>
<path fill="none" stroke="#333333" stroke-width="1.5" d="M2181,-216.4C2181,-259.62 2181,-364 2181,-364 2181,-364 2245.86,-364 2245.86,-364"/>
<polygon fill="#333333" stroke="#333333" stroke-width="1.5" points="2245.86,-366.45 2252.86,-364 2245.86,-361.55 2245.86,-366.45"/>
<text xml:space="preserve" text-anchor="middle" x="2200.88" y="-282.95" font-family="Times,serif" font-size="14.00">user_id</text>
</g>
<!-- coach_xp_events -->
<g id="node24" class="node">
<title>coach_xp_events</title>
<polygon fill="#ffffff" stroke="black" points="1719.25,-216 1626.75,-216 1626.75,-180 1719.25,-180 1719.25,-216"/>
<text xml:space="preserve" text-anchor="middle" x="1673" y="-194.5" font-family="Arial" font-size="10.00">coach_xp_events</text>
</g>
<!-- coach_xp_events&#45;&gt;battles -->
<g id="edge35" class="edge">
<title>coach_xp_events&#45;&gt;battles</title>
<path fill="none" stroke="#666666" d="M1657.58,-179.7C1657.58,-136.16 1657.58,-30 1657.58,-30 1657.58,-30 1234.23,-30 1234.23,-30"/>
<polygon fill="#666666" stroke="#666666" points="1234.23,-27.55 1227.23,-30 1234.23,-32.45 1234.23,-27.55"/>
<text xml:space="preserve" text-anchor="middle" x="1710.62" y="-102.95" font-family="Times,serif" font-size="14.00">battle_id</text>
</g>
<!-- coach_xp_events&#45;&gt;user_characters -->
<g id="edge36" class="edge">
<title>coach_xp_events&#45;&gt;user_characters</title>
<path fill="none" stroke="#666666" d="M1688.42,-179.71C1688.42,-135.03 1688.42,-24 1688.42,-24 1688.42,-24 1776.78,-24 1776.78,-24"/>
<polygon fill="#666666" stroke="#666666" points="1776.78,-26.45 1783.78,-24 1776.78,-21.55 1776.78,-26.45"/>
<text xml:space="preserve" text-anchor="middle" x="1808.38" y="-102.95" font-family="Times,serif" font-size="14.00">character_id</text>
</g>
<!-- coach_xp_events&#45;&gt;users -->
<g id="edge37" class="edge">
<title>coach_xp_events&#45;&gt;users</title>
<path fill="none" stroke="#333333" stroke-width="1.5" d="M1673,-216.38C1673,-261.86 1673,-376 1673,-376 1673,-376 2245.93,-376 2245.93,-376"/>
<polygon fill="#333333" stroke="#333333" stroke-width="1.5" points="2245.93,-378.45 2252.93,-376 2245.93,-373.55 2245.93,-378.45"/>
<text xml:space="preserve" text-anchor="middle" x="1793.88" y="-282.95" font-family="Times,serif" font-size="14.00">user_id</text>
</g>
<!-- cron_logs -->
<g id="node25" class="node">
<title>cron_logs</title>
<polygon fill="#e0e0e0" stroke="black" points="4472,-126 4414,-126 4414,-90 4472,-90 4472,-126"/>
<text xml:space="preserve" text-anchor="middle" x="4443" y="-104.5" font-family="Arial" font-size="10.00" fill="#666666">cron_logs</text>
</g>
<!-- events -->
<g id="node26" class="node">
<title>events</title>
<polygon fill="#ffffff" stroke="black" points="4228,-36 4174,-36 4174,0 4228,0 4228,-36"/>
<text xml:space="preserve" text-anchor="middle" x="4201" y="-14.5" font-family="Arial" font-size="10.00">events</text>
</g>
<!-- facts -->
<g id="node27" class="node">
<title>facts</title>
<polygon fill="#ffffff" stroke="black" points="4531,-126 4477,-126 4477,-90 4531,-90 4531,-126"/>
<text xml:space="preserve" text-anchor="middle" x="4504" y="-104.5" font-family="Arial" font-size="10.00">facts</text>
</g>
<!-- financial_decisions -->
<g id="node28" class="node">
<title>financial_decisions</title>
<polygon fill="#ffffff" stroke="black" points="3113.25,-216 3014.75,-216 3014.75,-180 3113.25,-180 3113.25,-216"/>
<text xml:space="preserve" text-anchor="middle" x="3064" y="-194.5" font-family="Arial" font-size="10.00">financial_decisions</text>
</g>
<!-- financial_decisions&#45;&gt;user_characters -->
<g id="edge38" class="edge">
<title>financial_decisions&#45;&gt;user_characters</title>
<path fill="none" stroke="#666666" d="M3064,-179.84C3064,-131.8 3064,-5 3064,-5 3064,-5 1881.11,-5 1881.11,-5"/>
<polygon fill="#666666" stroke="#666666" points="1881.11,-2.55 1874.11,-5 1881.11,-7.45 1881.11,-2.55"/>
<text xml:space="preserve" text-anchor="middle" x="3112" y="-102.95" font-family="Times,serif" font-size="14.00">user_character_id</text>
</g>
<!-- headquarters_rooms -->
<g id="node30" class="node">
<title>headquarters_rooms</title>
<polygon fill="#ffffff" stroke="black" points="3445.25,-306 3340.75,-306 3340.75,-270 3445.25,-270 3445.25,-306"/>
<text xml:space="preserve" text-anchor="middle" x="3393" y="-284.5" font-family="Arial" font-size="10.00">headquarters_rooms</text>
</g>
<!-- user_headquarters -->
<g id="node45" class="node">
<title>user_headquarters</title>
<polygon fill="#ffffff" stroke="black" points="3351.12,-126 3254.88,-126 3254.88,-90 3351.12,-90 3351.12,-126"/>
<text xml:space="preserve" text-anchor="middle" x="3303" y="-104.5" font-family="Arial" font-size="10.00">user_headquarters</text>
</g>
<!-- headquarters_rooms&#45;&gt;user_headquarters -->
<g id="edge39" class="edge">
<title>headquarters_rooms&#45;&gt;user_headquarters</title>
<path fill="none" stroke="#666666" d="M3345.94,-269.75C3345.94,-269.75 3345.94,-134.81 3345.94,-134.81"/>
<polygon fill="#666666" stroke="#666666" points="3348.39,-134.81 3345.94,-127.81 3343.49,-134.81 3348.39,-134.81"/>
<text xml:space="preserve" text-anchor="middle" x="3436.12" y="-192.95" font-family="Times,serif" font-size="14.00">headquarters_id</text>
</g>
<!-- memory_entries -->
<g id="node32" class="node">
<title>memory_entries</title>
<polygon fill="#ffffff" stroke="black" points="4729.88,-306 4644.12,-306 4644.12,-270 4729.88,-270 4729.88,-306"/>
<text xml:space="preserve" text-anchor="middle" x="4687" y="-284.5" font-family="Arial" font-size="10.00">memory_entries</text>
</g>
<!-- migration_log -->
<g id="node33" class="node">
<title>migration_log</title>
<polygon fill="#e0e0e0" stroke="black" points="4808.88,-306 4735.12,-306 4735.12,-270 4808.88,-270 4808.88,-306"/>
<text xml:space="preserve" text-anchor="middle" x="4772" y="-284.5" font-family="Arial" font-size="10.00" fill="#666666">migration_log</text>
</g>
<!-- migration_meta -->
<g id="node34" class="node">
<title>migration_meta</title>
<polygon fill="#e0e0e0" stroke="black" points="4896.38,-306 4813.62,-306 4813.62,-270 4896.38,-270 4896.38,-306"/>
<text xml:space="preserve" text-anchor="middle" x="4855" y="-284.5" font-family="Arial" font-size="10.00" fill="#666666">migration_meta</text>
</g>
<!-- purchases -->
<g id="node35" class="node">
<title>purchases</title>
<polygon fill="#ffffff" stroke="black" points="2313.5,-216 2252.5,-216 2252.5,-180 2313.5,-180 2313.5,-216"/>
<text xml:space="preserve" text-anchor="middle" x="2283" y="-194.5" font-family="Arial" font-size="10.00">purchases</text>
</g>
<!-- purchases&#45;&gt;users -->
<g id="edge40" class="edge">
<title>purchases&#45;&gt;users</title>
<path fill="none" stroke="#333333" stroke-width="1.5" d="M2283,-216.25C2283,-216.25 2283,-349.89 2283,-349.89"/>
<polygon fill="#333333" stroke="#333333" stroke-width="1.5" points="2280.55,-349.89 2283,-356.89 2285.45,-349.89 2280.55,-349.89"/>
<text xml:space="preserve" text-anchor="middle" x="2302.88" y="-282.95" font-family="Times,serif" font-size="14.00">user_id</text>
</g>
<!-- scene_triggers -->
<g id="node36" class="node">
<title>scene_triggers</title>
<polygon fill="#ffffff" stroke="black" points="4980.88,-306 4901.12,-306 4901.12,-270 4980.88,-270 4980.88,-306"/>
<text xml:space="preserve" text-anchor="middle" x="4941" y="-284.5" font-family="Arial" font-size="10.00">scene_triggers</text>
</g>
<!-- session_state -->
<g id="node37" class="node">
<title>session_state</title>
<polygon fill="#ffffff" stroke="black" points="4612.38,-126 4535.62,-126 4535.62,-90 4612.38,-90 4612.38,-126"/>
<text xml:space="preserve" text-anchor="middle" x="4574" y="-104.5" font-family="Arial" font-size="10.00">session_state</text>
</g>
<!-- state_digest -->
<g id="node38" class="node">
<title>state_digest</title>
<polygon fill="#ffffff" stroke="black" points="4686.62,-126 4617.38,-126 4617.38,-90 4686.62,-90 4686.62,-126"/>
<text xml:space="preserve" text-anchor="middle" x="4652" y="-104.5" font-family="Arial" font-size="10.00">state_digest</text>
</g>
<!-- team_context -->
<g id="node39" class="node">
<title>team_context</title>
<polygon fill="#ffffff" stroke="black" points="4169.62,-216 4094.38,-216 4094.38,-180 4169.62,-180 4169.62,-216"/>
<text xml:space="preserve" text-anchor="middle" x="4132" y="-194.5" font-family="Arial" font-size="10.00">team_context</text>
</g>
<!-- team_context&#45;&gt;characters -->
<g id="edge41" class="edge">
<title>team_context&#45;&gt;characters</title>
<path fill="none" stroke="#333333" stroke-width="1.5" d="M4094.04,-198C4080.54,-198 4068.62,-198 4068.62,-198 4068.62,-198 4068.62,-349.81 4068.62,-349.81"/>
<polygon fill="#333333" stroke="#333333" stroke-width="1.5" points="4066.18,-349.81 4068.63,-356.81 4071.08,-349.81 4066.18,-349.81"/>
<text xml:space="preserve" text-anchor="middle" x="4187.25" y="-282.95" font-family="Times,serif" font-size="14.00">master_bed_character_id</text>
</g>
<!-- tmp_user_characters_backup -->
<g id="node40" class="node">
<title>tmp_user_characters_backup</title>
<polygon fill="#e0e0e0" stroke="black" points="4836.12,-126 4691.88,-126 4691.88,-90 4836.12,-90 4836.12,-126"/>
<text xml:space="preserve" text-anchor="middle" x="4764" y="-104.5" font-family="Arial" font-size="10.00" fill="#666666">tmp_user_characters_backup</text>
</g>
<!-- user_characters&#45;&gt;characters -->
<g id="edge42" class="edge">
<title>user_characters&#45;&gt;characters</title>
<path fill="none" stroke="#333333" stroke-width="1.5" d="M1872.7,-23C1994.93,-23 2331.38,-23 2331.38,-23 2331.38,-23 2331.38,-392 2331.38,-392 2331.38,-392 4016.91,-392 4016.91,-392"/>
<polygon fill="#333333" stroke="#333333" stroke-width="1.5" points="4016.91,-394.45 4023.91,-392 4016.91,-389.55 4016.91,-394.45"/>
<text xml:space="preserve" text-anchor="middle" x="3584.38" y="-192.95" font-family="Times,serif" font-size="14.00">character_id</text>
</g>
<!-- user_characters&#45;&gt;users -->
<g id="edge43" class="edge">
<title>user_characters&#45;&gt;users</title>
<path fill="none" stroke="#333333" stroke-width="1.5" d="M1872.71,-27C1905.14,-27 1943.75,-27 1943.75,-27 1943.75,-27 1943.75,-372 1943.75,-372 1943.75,-372 2245.97,-372 2245.97,-372"/>
<polygon fill="#333333" stroke="#333333" stroke-width="1.5" points="2245.97,-374.45 2252.97,-372 2245.97,-369.55 2245.97,-374.45"/>
<text xml:space="preserve" text-anchor="middle" x="1959.88" y="-192.95" font-family="Times,serif" font-size="14.00">user_id</text>
</g>
<!-- user_currency -->
<g id="node42" class="node">
<title>user_currency</title>
<polygon fill="#ffffff" stroke="black" points="2426.75,-216 2349.25,-216 2349.25,-180 2426.75,-180 2426.75,-216"/>
<text xml:space="preserve" text-anchor="middle" x="2388" y="-194.5" font-family="Arial" font-size="10.00">user_currency</text>
</g>
<!-- user_currency&#45;&gt;users -->
<g id="edge44" class="edge">
<title>user_currency&#45;&gt;users</title>
<path fill="none" stroke="#333333" stroke-width="1.5" d="M2388,-216.19C2388,-259.47 2388,-365 2388,-365 2388,-365 2320.13,-365 2320.13,-365"/>
<polygon fill="#333333" stroke="#333333" stroke-width="1.5" points="2320.13,-362.55 2313.13,-365 2320.13,-367.45 2320.13,-362.55"/>
<text xml:space="preserve" text-anchor="middle" x="2407.88" y="-282.95" font-family="Times,serif" font-size="14.00">user_id</text>
</g>
<!-- user_daily_stats -->
<g id="node43" class="node">
<title>user_daily_stats</title>
<polygon fill="#ffffff" stroke="black" points="5073.62,-306 4986.38,-306 4986.38,-270 5073.62,-270 5073.62,-306"/>
<text xml:space="preserve" text-anchor="middle" x="5030" y="-284.5" font-family="Arial" font-size="10.00">user_daily_stats</text>
</g>
<!-- user_equipment -->
<g id="node44" class="node">
<title>user_equipment</title>
<polygon fill="#ffffff" stroke="black" points="2547.5,-216 2462.5,-216 2462.5,-180 2547.5,-180 2547.5,-216"/>
<text xml:space="preserve" text-anchor="middle" x="2505" y="-194.5" font-family="Arial" font-size="10.00">user_equipment</text>
</g>
<!-- user_equipment&#45;&gt;users -->
<g id="edge45" class="edge">
<title>user_equipment&#45;&gt;users</title>
<path fill="none" stroke="#333333" stroke-width="1.5" d="M2505,-216.3C2505,-260.41 2505,-369 2505,-369 2505,-369 2319.94,-369 2319.94,-369"/>
<polygon fill="#333333" stroke="#333333" stroke-width="1.5" points="2319.94,-366.55 2312.94,-369 2319.94,-371.45 2319.94,-366.55"/>
<text xml:space="preserve" text-anchor="middle" x="2524.88" y="-282.95" font-family="Times,serif" font-size="14.00">user_id</text>
</g>
<!-- user_headquarters&#45;&gt;users -->
<g id="edge46" class="edge">
<title>user_headquarters&#45;&gt;users</title>
<path fill="none" stroke="#333333" stroke-width="1.5" d="M3330.81,-126.13C3330.81,-186.67 3330.81,-378 3330.81,-378 3330.81,-378 2320.03,-378 2320.03,-378"/>
<polygon fill="#333333" stroke="#333333" stroke-width="1.5" points="2320.03,-375.55 2313.03,-378 2320.03,-380.45 2320.03,-375.55"/>
<text xml:space="preserve" text-anchor="middle" x="3187.88" y="-282.95" font-family="Times,serif" font-size="14.00">user_id</text>
</g>
<!-- user_items -->
<g id="node46" class="node">
<title>user_items</title>
<polygon fill="#ffffff" stroke="black" points="3718,-216 3654,-216 3654,-180 3718,-180 3718,-216"/>
<text xml:space="preserve" text-anchor="middle" x="3686" y="-194.5" font-family="Arial" font-size="10.00">user_items</text>
</g>
<!-- user_items&#45;&gt;users -->
<g id="edge48" class="edge">
<title>user_items&#45;&gt;users</title>
<path fill="none" stroke="#333333" stroke-width="1.5" d="M3686,-216.41C3686,-263.21 3686,-383 3686,-383 3686,-383 2319.98,-383 2319.98,-383"/>
<polygon fill="#333333" stroke="#333333" stroke-width="1.5" points="2319.98,-380.55 2312.98,-383 2319.98,-385.45 2319.98,-380.55"/>
<text xml:space="preserve" text-anchor="middle" x="3668.88" y="-282.95" font-family="Times,serif" font-size="14.00">user_id</text>
</g>
<!-- items -->
<g id="node48" class="node">
<title>items</title>
<polygon fill="lightgray" stroke="black" points="3713,-36 3659,-36 3659,0 3713,0 3713,-36"/>
<text xml:space="preserve" text-anchor="middle" x="3686" y="-14.5" font-family="Arial" font-size="10.00">items</text>
</g>
<!-- user_items&#45;&gt;items -->
<g id="edge47" class="edge">
<title>user_items&#45;&gt;items</title>
<path fill="none" stroke="#666666" d="M3686,-179.75C3686,-179.75 3686,-44.81 3686,-44.81"/>
<polygon fill="#666666" stroke="#666666" points="3688.45,-44.81 3686,-37.81 3683.55,-44.81 3688.45,-44.81"/>
<text xml:space="preserve" text-anchor="middle" x="3707" y="-102.95" font-family="Times,serif" font-size="14.00">item_id</text>
</g>
</g>
</svg>
